
        <svg xmlns="http://www.w3.org/2000/svg" xmlns:xlink="http://www.w3.org/1999/xlink" version="1.1" width="3176.470588235294" 
        height="1359.6317735048663" viewBox="0 0 3176.470588235294 1359.6317735048663">
			
			<g transform="scale(8.823529411764707) translate(10, 10)">
				<defs id="SvgjsDefs1164"></defs><g id="SvgjsG1165" featureKey="K5GtsI-0" transform="matrix(7.394519429859556,0,0,7.394519429859556,-1.3310192799845952,-40.81775063776711)" fill="#07366f"><path d="M11.72 8.3 l-2.1 1.08 c-0.48 -0.8 -1.8 -1.56 -3.32 -1.56 c-1.96 0 -2.9 0.82 -2.9 1.86 c0 1.22 1.44 1.56 3.12 1.76 c2.92 0.36 5.64 1.12 5.64 4.46 c0 3.12 -2.76 4.46 -5.88 4.46 c-2.86 0 -5.06 -0.88 -6.1 -3.44 l2.2 -1.14 c0.62 1.54 2.24 2.22 3.94 2.22 c1.66 0 3.22 -0.58 3.22 -2.1 c0 -1.32 -1.38 -1.86 -3.24 -2.06 c-2.86 -0.34 -5.5 -1.1 -5.5 -4.24 c0 -2.88 2.84 -4.06 5.42 -4.08 c2.18 0 4.44 0.62 5.5 2.78 z M16.84 20 l-2.62 0 l0 -14 l2.62 0 l0 14 z M31.259999999999998 6 l0 8.02 c0 3.62 -2.3 6.26 -6.16 6.26 c-3.58 0 -6.14 -2.14 -6.14 -6.1 l2.6 0 c0 2.4 1.16 3.62 3.54 3.62 c2.4 0 3.52 -1.66 3.52 -3.78 l0 -5.56 l-4.22 0 l0 -2.46 l6.86 0 z M46.16 19.82 l0 0.18 l-3.14 0 l-4.08 -4.68 l-2.54 0 l0 4.68 l-2.64 0 l0 -14.02 c2.22 0 4.44 0.02 6.66 0.02 c3.3 0.02 5.04 2.22 5.04 4.64 c0 1.92 -0.88 3.86 -3.54 4.4 z M40.42 8.46 l-4.02 0 l0 4.48 l4.02 0 c1.68 0 2.4 -1.12 2.4 -2.24 s-0.74 -2.24 -2.4 -2.24 z"></path></g><g id="SvgjsG1166" featureKey="K5GtsI-1" transform="matrix(0.9674482063455097,0,0,0.9674482063455097,-0.17414143369920734,114.65968545811015)" fill="#07366f"><path d="M11.72 8.3 l-2.1 1.08 c-0.48 -0.8 -1.8 -1.56 -3.32 -1.56 c-1.96 0 -2.9 0.82 -2.9 1.86 c0 1.22 1.44 1.56 3.12 1.76 c2.92 0.36 5.64 1.12 5.64 4.46 c0 3.12 -2.76 4.46 -5.88 4.46 c-2.86 0 -5.06 -0.88 -6.1 -3.44 l2.2 -1.14 c0.62 1.54 2.24 2.22 3.94 2.22 c1.66 0 3.22 -0.58 3.22 -2.1 c0 -1.32 -1.38 -1.86 -3.24 -2.06 c-2.86 -0.34 -5.5 -1.1 -5.5 -4.24 c0 -2.88 2.84 -4.06 5.42 -4.08 c2.18 0 4.44 0.62 5.5 2.78 z M16.84 20 l-2.62 0 l0 -14 l2.62 0 l0 14 z M30.46 8.3 l-2.1 1.08 c-0.48 -0.8 -1.8 -1.56 -3.32 -1.56 c-1.96 0 -2.9 0.82 -2.9 1.86 c0 1.22 1.44 1.56 3.12 1.76 c2.92 0.36 5.64 1.12 5.64 4.46 c0 3.12 -2.76 4.46 -5.88 4.46 c-2.86 0 -5.06 -0.88 -6.1 -3.44 l2.2 -1.14 c0.62 1.54 2.24 2.22 3.94 2.22 c1.66 0 3.22 -0.58 3.22 -2.1 c0 -1.32 -1.38 -1.86 -3.24 -2.06 c-2.86 -0.34 -5.5 -1.1 -5.5 -4.24 c0 -2.88 2.84 -4.06 5.42 -4.08 c2.18 0 4.44 0.62 5.5 2.78 z M36.56 20 l0 -11.6 l-4.44 0 l0 -2.4 l11.52 0 l0 2.4 l-4.44 0 l0 11.6 l-2.64 0 z M55.68000000000001 17.4 l0 2.6 l-10.48 0 l0 -14 l10.48 0 l0 2.56 l-7.86 0 l0 3.22 l7.58 0 l0 2.46 l-7.58 0 l0 3.16 l7.86 0 z M69.92000000000002 20.02 l0 -10.16 l-4.56 6.08 l-0.52 0 l-4.46 -6.1 l0 10.18 l-2.64 0 l0 -14 l3.04 0 l4.38 6.02 l4.38 -6.02 l3.02 0 l0 14 l-2.64 0 z M81.72000000000001 20 l-2.62 0 l0 -14 l2.62 0 l0 14 z M93.4 14.68 l0 -8.7 l2.64 0 l0 14.02 l-1.64 0 l0 0.02 l-7.36 -9.46 l0 9.44 l-2.64 0 l0 -14 l2.14 0 z M101.10000000000002 20 l-2.64 0 l0 -13.98 l10.06 0 l0 2.54 l-7.42 0 l0 3.82 l7.02 0 l0 2.44 l-7.02 0 l0 5.18 z M117.34000000000002 5.720000000000001 c4.82 0 7.22 3.7 7.18 7.36 c-0.04 3.62 -2.26 7.24 -7.18 7.24 s-7.2 -3.54 -7.2 -7.22 s2.36 -7.38 7.2 -7.38 z M117.34000000000002 8.12 c-3.3 0 -4.66 2.66 -4.6 5.02 c0.06 2.3 1.3 4.76 4.6 4.76 s4.54 -2.48 4.58 -4.78 c0.04 -2.36 -1.28 -5 -4.58 -5 z M138.88000000000002 19.82 l0 0.18 l-3.14 0 l-4.08 -4.68 l-2.54 0 l0 4.68 l-2.64 0 l0 -14.02 c2.22 0 4.44 0.02 6.66 0.02 c3.3 0.02 5.04 2.22 5.04 4.64 c0 1.92 -0.88 3.86 -3.54 4.4 z M133.14000000000001 8.46 l-4.02 0 l0 4.48 l4.02 0 c1.68 0 2.4 -1.12 2.4 -2.24 s-0.74 -2.24 -2.4 -2.24 z M152.16000000000003 20.02 l0 -10.16 l-4.56 6.08 l-0.52 0 l-4.46 -6.1 l0 10.18 l-2.64 0 l0 -14 l3.04 0 l4.38 6.02 l4.38 -6.02 l3.02 0 l0 14 l-2.64 0 z M168.4 20 l-1.18 -2.64 l-7.32 0 l-1.2 2.64 l-2.86 0 l6.28 -14 l2.88 0 l6.28 14 l-2.88 0 z M166.16000000000003 14.9 l-2.6 -5.96 l-2.6 5.96 l5.2 0 z M183 8.3 l-2.1 1.08 c-0.48 -0.8 -1.8 -1.56 -3.32 -1.56 c-1.96 0 -2.9 0.82 -2.9 1.86 c0 1.22 1.44 1.56 3.12 1.76 c2.92 0.36 5.64 1.12 5.64 4.46 c0 3.12 -2.76 4.46 -5.88 4.46 c-2.86 0 -5.06 -0.88 -6.1 -3.44 l2.2 -1.14 c0.62 1.54 2.24 2.22 3.94 2.22 c1.66 0 3.22 -0.58 3.22 -2.1 c0 -1.32 -1.38 -1.86 -3.24 -2.06 c-2.86 -0.34 -5.5 -1.1 -5.5 -4.24 c0 -2.88 2.84 -4.06 5.42 -4.08 c2.18 0 4.44 0.62 5.5 2.78 z M188.12 20 l-2.62 0 l0 -14 l2.62 0 l0 14 z M206.38 6 l0 8.02 c0 3.62 -2.3 6.26 -6.16 6.26 c-3.58 0 -6.14 -2.14 -6.14 -6.1 l2.6 0 c0 2.4 1.16 3.62 3.54 3.62 c2.4 0 3.52 -1.66 3.52 -3.78 l0 -5.56 l-4.22 0 l0 -2.46 l6.86 0 z M219.98 20 l-1.18 -2.64 l-7.32 0 l-1.2 2.64 l-2.86 0 l6.28 -14 l2.88 0 l6.28 14 l-2.88 0 z M217.74 14.9 l-2.6 -5.96 l-2.6 5.96 l5.2 0 z M236.04 20.02 l0 -10.16 l-4.56 6.08 l-0.52 0 l-4.46 -6.1 l0 10.18 l-2.64 0 l0 -14 l3.04 0 l4.38 6.02 l4.38 -6.02 l3.02 0 l0 14 l-2.64 0 z M252.39999999999998 6 l0 0.08 l-6.22 6.7 l6.74 7.06 l0 0.16 l-3.26 0 l-5.86 -6.2 l0 6.2 l-2.64 0 l0 -14 l2.64 0 l0 5.92 l5.32 -5.92 l3.28 0 z M266.46 19.82 l0 0.18 l-3.14 0 l-4.08 -4.68 l-2.54 0 l0 4.68 l-2.64 0 l0 -14.02 c2.22 0 4.44 0.02 6.66 0.02 c3.3 0.02 5.04 2.22 5.04 4.64 c0 1.92 -0.88 3.86 -3.54 4.4 z M260.71999999999997 8.46 l-4.02 0 l0 4.48 l4.02 0 c1.68 0 2.4 -1.12 2.4 -2.24 s-0.74 -2.24 -2.4 -2.24 z M270.17999999999995 20 l-2.62 0 l0 -14 l2.62 0 l0 14 z M277.97999999999996 6 c4.8 0 6.94 3.42 7 6.88 c0.06 3.54 -2.1 7.12 -7 7.12 l-5.5 0 l0 -14 l5.5 0 z M275.09999999999997 8.5 l0 8.96 l2.88 0 c3.18 0 4.44 -2.32 4.38 -4.6 c-0.06 -2.18 -1.34 -4.36 -4.38 -4.36 l-2.88 0 z M297.84 20 l-1.18 -2.64 l-7.32 0 l-1.2 2.64 l-2.86 0 l6.28 -14 l2.88 0 l6.28 14 l-2.88 0 z M295.59999999999997 14.9 l-2.6 -5.96 l-2.6 5.96 l5.2 0 z M318.15999999999997 19.82 l0 0.18 l-3.14 0 l-4.08 -4.68 l-2.54 0 l0 4.68 l-2.64 0 l0 -14.02 c2.22 0 4.44 0.02 6.66 0.02 c3.3 0.02 5.04 2.22 5.04 4.64 c0 1.92 -0.88 3.86 -3.54 4.4 z M312.42 8.46 l-4.02 0 l0 4.48 l4.02 0 c1.68 0 2.4 -1.12 2.4 -2.24 s-0.74 -2.24 -2.4 -2.24 z M321.88 20 l-2.62 0 l0 -14 l2.62 0 l0 14 z M335.48 20 l-1.18 -2.64 l-7.32 0 l-1.2 2.64 l-2.86 0 l6.28 -14 l2.88 0 l6.28 14 l-2.88 0 z M333.24 14.9 l-2.6 -5.96 l-2.6 5.96 l5.2 0 z M349 6.02 l2.62 0 l0 8.02 c0 4.14 -2.54 6.26 -6.06 6.26 c-3.36 0 -6.22 -2.04 -6.22 -6.26 l0 -8.02 l2.62 0 l0 8.02 c0 2.52 1.44 3.86 3.62 3.86 s3.42 -1.46 3.42 -3.86 l0 -8.02 z"></path></g>
			</g>
		</svg>
	